<svg width="92" height="34" viewBox="0 0 92 34" fill="none" xmlns="http://www.w3.org/2000/svg" id="svg1028142574_3609">
<g clip-path="url(#svg1028142574_3609_clip0_4904_78611)">
<path d="M10.0559 0H0.0205078V24L10.0559 0Z" fill="#0D0C22"></path>
<path d="M17.1167 0H27.139V24L17.1167 0Z" fill="#0D0C22"></path>
<path d="M13.5865 8.84546L19.9739 23.9999H15.7832L13.8742 19.1751H9.19971L13.5865 8.84546Z" fill="#0D0C22"></path>
<path d="M43.5113 15.2623L44.6946 18.6554C44.7338 18.7404 44.7926 18.7796 44.8973 18.7796H47.1724C47.2966 18.7796 47.3162 18.7208 47.2966 18.5966L42.596 5.54072C42.5764 5.43612 42.5567 5.4165 42.4521 5.4165H39.6278C39.5494 5.4165 39.5036 5.47534 39.5036 5.56033C39.4644 6.2468 39.4056 6.456 39.3206 6.65867L35.1299 18.577C35.1103 18.7208 35.156 18.7796 35.2737 18.7796H37.3069C37.4312 18.7796 37.49 18.7404 37.5358 18.6162L38.6537 15.2623H43.5113ZM39.301 13.046C39.9155 11.1893 40.7262 8.80959 41.0531 7.44974H41.0727C41.478 8.87496 42.4325 11.6993 42.864 13.046H39.301Z" fill="#0D0C22"></path>
<path d="M53.3398 18.9823C54.5623 18.9823 55.8633 18.76 57.184 18.1913C57.2886 18.152 57.3082 18.1063 57.3082 18.0082C57.2689 17.6421 57.2232 17.1125 57.2232 16.7072V4.41626C57.2232 4.33781 57.2232 4.29858 57.1251 4.29858H54.9088C54.8239 4.29858 54.7846 4.33781 54.7846 4.44241V8.60695C54.4381 8.56772 54.1962 8.54811 53.9086 8.54811C50.3324 8.54811 48.1357 10.9082 48.1357 13.8567C48.1357 17.276 50.3913 18.9823 53.3398 18.9823ZM54.7846 16.7072C54.4185 16.8249 54.0132 16.8706 53.6013 16.8706C51.9799 16.8706 50.6528 15.9554 50.6528 13.7325C50.6528 11.7647 52.0192 10.601 53.8301 10.601C54.1962 10.601 54.5166 10.6402 54.7846 10.7448V16.7072Z" fill="#0D0C22"></path>
<path d="M64.3786 8.5481C61.3254 8.5481 59.436 10.8886 59.436 13.7783C59.436 16.3607 60.9397 18.9823 64.3328 18.9823C67.2029 18.9823 69.2165 16.8706 69.2165 13.7129C69.2165 10.9278 67.5101 8.5481 64.3786 8.5481ZM64.2543 10.6009C65.9803 10.6009 66.7125 12.085 66.7125 13.7783C66.7125 15.8704 65.6338 16.9098 64.3786 16.9098C62.8291 16.9098 61.9138 15.6088 61.9138 13.7325C61.9138 11.8039 62.888 10.6009 64.2543 10.6009Z" fill="#0D0C22"></path>
<path d="M71.5076 4.29858C71.4226 4.29858 71.3638 4.33781 71.3638 4.44241V18.3547C71.3638 18.4135 71.4226 18.5181 71.5076 18.5378C72.4817 18.8385 73.5016 18.9823 74.5542 18.9823C77.5681 18.9823 80.497 17.1125 80.497 13.3468C80.497 10.6206 78.6272 8.54811 75.6983 8.54811C75.0249 8.54811 74.3973 8.65271 73.8481 8.83577L73.822 4.46203C73.822 4.3182 73.7827 4.29858 73.6389 4.29858H71.5076ZM77.993 13.5952C77.993 15.8508 76.4501 16.9099 74.783 16.9099C74.4365 16.9099 74.1292 16.8902 73.8481 16.8053V10.869C74.1685 10.7448 74.5542 10.6402 75.2668 10.6402C76.8751 10.6402 77.993 11.6601 77.993 13.5952Z" fill="#0D0C22"></path>
<path d="M88.7683 14.3274C89.7621 14.3274 90.5793 14.3078 90.8604 14.2425C90.965 14.2228 91.0042 14.1836 91.0239 14.0986C91.0827 13.8763 91.1088 13.4122 91.1088 12.8434C91.1088 10.9082 89.9451 8.5481 86.9378 8.5481C83.865 8.5481 82.1587 11.052 82.1587 13.8763C82.1587 16.3803 83.4793 18.9823 87.1797 18.9823C88.5657 18.9823 89.4613 18.76 90.2328 18.3939C90.3112 18.3547 90.3505 18.2893 90.3505 18.1716V16.4784C90.3505 16.3803 90.2916 16.3607 90.2328 16.3999C89.4613 16.7268 88.6245 16.8902 87.7092 16.8902C85.6368 16.8902 84.6953 15.7461 84.6365 14.3274H88.7683ZM84.6365 12.5753C84.7999 11.5816 85.4275 10.5029 86.8332 10.5029C88.3826 10.5029 88.7879 11.8039 88.7879 12.3923C88.7879 12.4119 88.7879 12.4969 88.7879 12.5557C88.703 12.5753 88.4414 12.5753 87.67 12.5753H84.6365Z" fill="#0D0C22"></path>
</g>
<defs>
<clipPath id="svg1028142574_3609_clip0_4904_78611">
<rect width="91" height="34" fill="white" transform="translate(0.5)"></rect>
</clipPath>
</defs>
</svg>