<svg width="84" height="26" viewBox="0 0 84 26" fill="none" xmlns="http://www.w3.org/2000/svg" id="svg275765991_6041">
<g clip-path="url(#svg275765991_6041_clip0_4904_78350)">
<path d="M51.9525 19.9651C47.1449 23.5087 40.1766 25.3993 34.177 25.3993C25.7645 25.3993 18.1912 22.2879 12.4616 17.1129C12.0115 16.706 12.4148 16.1514 12.955 16.4683C19.1383 20.0659 26.7837 22.2303 34.6811 22.2303C40.0073 22.2303 45.8665 21.1283 51.2539 18.8415C52.0678 18.4958 52.7484 19.3745 51.9525 19.9651Z" fill="#0D0C22"></path>
<path d="M53.9511 17.6788C53.3389 16.8937 49.8889 17.3079 48.3404 17.4915C47.8686 17.5491 47.7966 17.1386 48.2216 16.8433C50.9693 14.9095 55.478 15.4676 56.0038 16.1159C56.5296 16.7677 55.8669 21.2872 53.2849 23.4443C52.8887 23.7756 52.5106 23.5992 52.6871 23.1598C53.2669 21.7121 54.5669 18.4675 53.9511 17.6788Z" fill="#0D0C22"></path>
<path d="M48.4487 3.19064V1.31081C48.4487 1.02631 48.6648 0.835449 48.9241 0.835449H57.3401C57.6102 0.835449 57.8263 1.02991 57.8263 1.31081V2.92055C57.8227 3.19064 57.5958 3.54356 57.1924 4.10175L52.8314 10.3283C54.4519 10.2886 56.1625 10.5299 57.6318 11.3582C57.9631 11.5455 58.0531 11.8192 58.0783 12.0892V14.0951C58.0783 14.3688 57.7758 14.6893 57.4589 14.5237C54.8697 13.166 51.4305 13.0184 48.5675 14.5381C48.2758 14.6965 47.9697 14.3796 47.9697 14.1059V12.2009C47.9697 11.8948 47.9733 11.3726 48.2794 10.908L53.3319 3.6624H48.9349C48.6648 3.6624 48.4487 3.47154 48.4487 3.19064Z" fill="#0D0C22"></path>
<path d="M17.7483 14.9199H15.1878C14.9429 14.9019 14.7485 14.7182 14.7305 14.4841V1.34329C14.7305 1.0804 14.9501 0.871532 15.2238 0.871532H17.6114C17.8599 0.882329 18.058 1.0732 18.076 1.31088V3.02866H18.1228C18.7458 1.3685 19.9162 0.594238 21.4935 0.594238C23.0961 0.594238 24.0972 1.3685 24.8175 3.02866C25.4369 1.3685 26.8449 0.594238 28.3539 0.594238C29.427 0.594238 30.601 1.03719 31.3177 2.03112C32.1279 3.1367 31.9623 4.74284 31.9623 6.15091L31.9587 14.4445C31.9587 14.7074 31.739 14.9199 31.4653 14.9199H28.9084C28.6528 14.9019 28.4475 14.6966 28.4475 14.4445V7.47976C28.4475 6.92518 28.4979 5.54231 28.3755 5.01653C28.1846 4.13423 27.612 3.88575 26.8702 3.88575C26.2508 3.88575 25.6025 4.29989 25.3396 4.96251C25.0768 5.62514 25.102 6.73431 25.102 7.47976V14.4445C25.102 14.7074 24.8823 14.9199 24.6086 14.9199H22.0517C21.7924 14.9019 21.5908 14.6966 21.5908 14.4445L21.5872 7.47976C21.5872 6.01407 21.8285 3.85694 20.0098 3.85694C18.1696 3.85694 18.2417 5.96005 18.2417 7.47976V14.4445C18.2417 14.7074 18.022 14.9199 17.7483 14.9199Z" fill="#0D0C22"></path>
<path d="M65.072 0.594238C68.8713 0.594238 70.9276 3.85694 70.9276 8.00554C70.9276 12.0137 68.6552 15.1936 65.072 15.1936C61.3411 15.1936 59.3101 11.9309 59.3101 7.86509C59.3101 3.77411 61.3664 0.594238 65.072 0.594238ZM65.0936 3.27714C63.2066 3.27714 63.0877 5.84841 63.0877 7.45095C63.0877 9.05709 63.0625 12.4854 65.072 12.4854C67.0563 12.4854 67.1499 9.71972 67.1499 8.03435C67.1499 6.92518 67.1031 5.59993 66.7682 4.54837C66.4801 3.63367 65.9075 3.27714 65.0936 3.27714Z" fill="#0D0C22"></path>
<path d="M75.8541 14.9199H73.3044C73.0487 14.9019 72.8434 14.6966 72.8434 14.4445L72.8398 1.30008C72.8615 1.05879 73.0739 0.871532 73.3332 0.871532H75.7064C75.9297 0.882329 76.1133 1.03359 76.1638 1.23886V3.24833H76.2106C76.9272 1.45133 77.932 0.594238 79.7002 0.594238C80.8489 0.594238 81.9689 1.00838 82.6892 2.14276C83.359 3.19432 83.359 4.96251 83.359 6.23374V14.5057C83.3302 14.7362 83.1177 14.9199 82.8656 14.9199H80.298C80.0639 14.9019 79.8694 14.729 79.8442 14.5057V7.36812C79.8442 5.93124 80.0099 3.82813 78.2417 3.82813C77.6187 3.82813 77.0461 4.24587 76.7616 4.87968C76.4014 5.68276 76.3546 6.48223 76.3546 7.36812V14.4445C76.351 14.7074 76.1277 14.9199 75.8541 14.9199Z" fill="#0D0C22"></path>
<path d="M41.7394 8.64302V8.08843C39.8883 8.08843 37.9329 8.48457 37.9329 10.6669C37.9329 11.7725 38.5055 12.5215 39.4886 12.5215C40.2089 12.5215 40.8535 12.0786 41.2604 11.3583C41.7646 10.4724 41.7394 9.64055 41.7394 8.64302ZM44.3214 14.8839C44.1522 15.0352 43.9073 15.046 43.7164 14.9451C42.8665 14.2393 42.7153 13.9116 42.2471 13.2382C40.8427 14.6715 39.8487 15.1 38.0265 15.1C35.873 15.1 34.1948 13.7711 34.1948 11.1099C34.1948 9.03195 35.322 7.61667 36.9245 6.92524C38.3146 6.31303 40.2557 6.205 41.7394 6.03574V5.70443C41.7394 5.09582 41.7862 4.37558 41.4297 3.8498C41.1164 3.37804 40.5186 3.18358 39.9928 3.18358C39.0169 3.18358 38.1454 3.68415 37.9329 4.7213C37.8897 4.95178 37.7204 5.17865 37.4899 5.18946L35.0051 4.92296C34.7962 4.87615 34.5657 4.70689 34.6234 4.38639C35.196 1.37577 37.9149 0.468262 40.3493 0.468262C41.5953 0.468262 43.2231 0.799573 44.2062 1.74309C45.4522 2.90628 45.3334 4.45841 45.3334 6.14738V10.1375C45.3334 11.3367 45.8303 11.8625 46.2985 12.5107C46.4642 12.7412 46.5002 13.0185 46.2913 13.1914C45.7691 13.6271 44.84 14.4374 44.3286 14.8911L44.3214 14.8839" fill="#0D0C22"></path>
<path d="M8.17247 8.64302V8.08843C6.32145 8.08843 4.36599 8.48457 4.36599 10.6669C4.36599 11.7725 4.93858 12.5215 5.92171 12.5215C6.64196 12.5215 7.28657 12.0786 7.69351 11.3583C8.19768 10.4724 8.17247 9.64055 8.17247 8.64302ZM10.7545 14.8839C10.5853 15.0352 10.3404 15.046 10.1495 14.9451C9.29965 14.2393 9.1484 13.9116 8.68024 13.2382C7.27577 14.6715 6.28184 15.1 4.45962 15.1C2.30609 15.1 0.62793 13.7711 0.62793 11.1099C0.62793 9.03195 1.75511 7.61667 3.35765 6.92524C4.74772 6.31303 6.68877 6.205 8.17247 6.03574V5.70443C8.17247 5.09582 8.21929 4.37558 7.86277 3.8498C7.54946 3.37804 6.95166 3.18358 6.42588 3.18358C5.44996 3.18358 4.57846 3.68415 4.36599 4.7213C4.32277 4.95178 4.15352 5.17865 3.92304 5.18946L1.4382 4.92296C1.22933 4.87615 0.998854 4.70689 1.05647 4.38639C1.62907 1.37577 4.34798 0.468262 6.7824 0.468262C8.02842 0.468262 9.65617 0.799573 10.6393 1.74309C11.8853 2.90628 11.7665 4.45841 11.7665 6.14738V10.1375C11.7665 11.3367 12.2635 11.8625 12.7316 12.5107C12.8973 12.7412 12.9333 13.0185 12.7244 13.1914C12.2022 13.6271 11.2731 14.4374 10.7617 14.8911L10.7545 14.8839" fill="#0D0C22"></path>
</g>
<defs>
<clipPath id="svg275765991_6041_clip0_4904_78350">
<rect width="82.8297" height="25" fill="white" transform="translate(0.578125 0.43457)"></rect>
</clipPath>
</defs>
</svg>