<svg width="114" height="31" viewBox="0 0 114 31" fill="none" xmlns="http://www.w3.org/2000/svg" id="svg-863689614_3559">
<path d="M0.263184 11.1774H10.4405L20.8519 21.5887H10.4405V32L0.263184 21.5887V11.1774ZM0.263184 1H20.8519V11.1774H10.4405L0.263184 1Z" fill="#0D0C22"></path>
<path d="M40.3252 22.9919V7.60889H49.8007V10.7089H43.8931V14.7447H49.8007V17.7862H43.8931V22.9919H40.3252Z" fill="#0D0C22"></path>
<path d="M51.9111 22.9916V12.3463H55.4791V14.7444C55.5375 13.984 55.8885 13.3406 56.4149 12.8142C56.9413 12.3463 57.6432 12.1123 58.3451 12.1123C58.813 12.1123 59.047 12.3463 59.2809 12.3463V15.4463H58.3451C57.5262 15.3293 56.7074 15.7387 56.1809 16.3821C55.713 16.85 55.4791 17.7859 55.4791 18.9557V22.9916H51.9111Z" fill="#0D0C22"></path>
<path d="M65.8857 20.6519C66.6461 20.7689 67.4065 20.3595 67.7574 19.7161C68.2253 19.1897 68.4593 18.5463 68.4593 17.8444C68.4593 17.084 68.2253 16.3236 67.7574 15.7387C67.2895 15.2123 66.5876 14.9783 65.8857 15.0368C65.1838 15.0368 64.4819 15.2708 63.9555 15.7387C63.4876 16.3236 63.1951 17.084 63.2536 17.8444C63.2536 18.5463 63.4876 19.2482 63.9555 19.7161C64.4234 20.301 65.1253 20.6519 65.8857 20.6519ZM64.9499 23.4595C63.4876 23.4595 62.1423 22.8746 61.148 21.8217C60.3291 20.6519 59.9197 19.2481 59.9782 17.7859C59.9782 16.85 60.1536 15.8557 60.4461 14.9783C60.8555 14.101 61.5574 13.3991 62.3178 12.8142C63.0782 12.3463 64.014 12.1123 64.9499 12.1123C65.6517 12.1708 66.4121 12.2878 67.0555 12.5802C67.6404 12.8727 68.0499 13.3991 68.2253 13.984V12.2878H71.7933V22.9331H68.2253V21.5293C67.9329 22.0557 67.5234 22.5236 67.0555 22.9331C66.4121 23.284 65.7102 23.401 64.9499 23.4595Z" fill="#0D0C22"></path>
<path d="M74.4297 22.9924V12.3471H77.7636V14.0433C77.9976 13.3414 78.4655 13.1075 78.9335 12.6396C79.5184 12.3471 80.1618 12.2301 80.8636 12.1716C82.5014 12.1716 83.7297 12.8735 84.1976 14.1018C84.6655 13.6339 85.1335 13.166 85.6014 12.698C86.3033 12.4056 87.0052 12.2886 87.7655 12.2301C90.3391 12.2301 91.5674 13.6339 91.5674 16.4999V23.1094H88.2335V17.0848C88.2335 16.4999 88.058 15.915 87.7655 15.4471C87.4146 15.1546 87.0052 14.9792 86.5372 14.9792C85.9523 14.9207 85.4259 15.2131 85.1335 15.6811C84.7825 16.266 84.607 16.9094 84.6655 17.5528V22.9924H81.3316V17.0848C81.3316 16.4999 81.1561 15.915 80.8636 15.4471C80.5712 15.1546 80.1033 14.9792 79.6938 14.9792C79.1674 15.0377 78.641 15.2716 78.2901 15.6811C77.9391 16.266 77.7637 16.9094 77.8221 17.5528V22.9924H74.4297Z" fill="#0D0C22"></path>
<path d="M96.7122 16.6167H101.216C101.216 16.0318 101.041 15.4469 100.748 14.979C100.28 14.5111 99.8122 14.5111 99.1104 14.5111C98.467 14.5111 97.8236 14.6865 97.2387 14.979C96.8877 15.4469 96.7122 16.0318 96.7122 16.6167ZM104.491 17.0846V18.7224H96.6538C96.6538 19.3658 96.8877 19.9507 97.3556 20.3601C97.8236 20.7111 98.4085 20.8865 98.9934 20.828C100.163 20.828 100.631 20.5941 101.099 19.8922H104.433C104.199 21.0035 103.497 21.9394 102.561 22.4658C101.45 23.0507 100.222 23.4016 98.9934 23.4016C97.1217 23.4016 95.6594 22.9337 94.7236 21.7639C93.6707 20.7111 93.0273 19.2488 93.0273 17.728C93.0273 16.1488 93.6122 14.628 94.7236 13.4582C95.6594 12.5224 97.0632 12.0545 98.9934 12.0545C100.456 11.996 101.918 12.5224 103.029 13.4582C104.024 14.4526 104.55 15.7394 104.491 17.0846Z" fill="#0D0C22"></path>
<path d="M106.426 22.9916V12.3463H109.76V14.7444C109.994 14.0425 110.403 13.3991 110.93 12.8142C111.456 12.3463 112.099 12.1123 112.801 12.1123C113.035 12.1123 113.503 12.3463 113.737 12.3463V15.4463H112.567C111.807 15.3878 111.105 15.7972 110.696 16.3821C109.994 16.85 109.76 17.7859 109.76 18.9557V22.9916H106.426Z" fill="#0D0C22"></path>
</svg>