<svg width="98" height="33" viewBox="0 0 98 33" fill="none" xmlns="http://www.w3.org/2000/svg" id="svg899107167_4246">
<g clip-path="url(#svg899107167_4246_clip0_4904_78238)">
<path d="M92.4535 14.9832C95.3032 14.9832 97.4172 13.2367 97.4172 11.1225C97.4172 9.28405 96.2224 8.27288 93.8319 7.81328L91.81 7.53753C90.4309 7.35369 89.9716 7.07793 89.9716 6.34254V5.88292C89.9716 5.05563 90.6151 4.59602 92.1778 4.59602C94.1076 4.59602 94.5676 5.05563 94.5676 6.52638H97.1416C96.9573 4.22833 95.0268 2.57373 92.1778 2.57373C89.4196 2.57373 87.4897 4.22833 87.4897 6.34254C87.4897 7.99712 88.8682 9.37597 91.0744 9.74365L93.3727 10.0194C94.5676 10.2032 94.8432 10.479 94.8432 11.1225V11.5821C94.8432 12.5013 94.1076 12.9609 92.3614 12.9609C90.2473 12.9609 89.6959 12.4094 89.6959 10.7548H87.1219C87.3976 13.1448 89.3281 14.9832 92.4535 14.9832ZM80.9633 14.9832C84.0887 14.9832 85.9271 13.1448 85.9271 10.2952V2.75757H83.5366V10.9387C83.5366 12.3174 82.8931 12.7771 81.0547 12.7771C79.2164 12.7771 78.5729 12.2255 78.5729 10.9387V2.75757H76.091V10.2952C75.9995 13.0529 77.8379 14.9832 80.9633 14.9832ZM69.0132 14.9832C71.955 14.9832 74.4369 12.6852 74.6204 10.0194H71.955C71.8629 11.9498 71.0358 12.6852 69.0132 12.6852C66.6232 12.6852 65.8879 11.8578 65.8879 9.46789V7.99712C65.8879 5.69908 66.7151 4.87178 69.0132 4.87178C71.0358 4.87178 71.8629 5.60716 71.955 7.53753H74.6204C74.4369 4.87178 72.0464 2.57373 69.0132 2.57373C65.612 2.57373 63.2221 5.23947 63.2221 8.73247C63.2221 12.2255 65.612 14.9832 69.0132 14.9832ZM56.0522 12.6852C53.7541 12.6852 52.6511 11.5821 52.6511 9.46789V7.99712C52.6511 5.88292 53.6622 4.87178 56.0522 4.87178C58.4422 4.87178 59.4533 5.97485 59.4533 7.99712V9.46789C59.4533 11.5821 58.3503 12.6852 56.0522 12.6852ZM39.9658 14.7994H42.4478V10.0194H48.5146V7.81328H42.4478V4.96371H49.0661V2.75757H39.9658V14.7994ZM56.0522 14.9832C59.5452 14.9832 62.0271 12.3174 62.0271 8.82446C62.0271 5.33139 59.6371 2.66566 56.0522 2.66566C52.4673 2.66566 50.0772 5.33139 50.0772 8.82446C50.0772 12.3174 52.5592 14.9832 56.0522 14.9832Z" fill="#0D0C22"></path>
<path d="M70.7593 24.0836C71.7706 23.4401 72.3219 22.5209 72.3219 21.6017C72.3219 19.5794 70.8514 18.2925 68.2777 18.2925H62.3027V30.3343H68.6453C71.2192 30.3343 72.5983 28.8635 72.5983 26.7493C72.6898 25.5543 71.9548 24.6351 70.7593 24.0836ZM64.6927 20.2228H68.1857C69.5644 20.2228 69.8401 20.6825 69.8401 21.4179V21.9694C69.8401 22.7048 69.6565 23.0725 68.1857 23.0725H64.6927V20.2228ZM70.2079 26.8413C70.2079 27.6685 69.9322 28.1281 68.3696 28.1281H64.6927V25.0947H68.3696C69.9322 25.0947 70.2079 25.5543 70.2079 26.2898V26.8413Z" fill="#0D0C22"></path>
<path d="M57.8906 18.2007H53.1106L49.7095 30.2425H52.2833L53.0187 27.3929H57.8906L58.6259 30.2425H61.1997L57.8906 18.2007ZM53.5702 25.2787L54.8571 20.4068H56.1441L57.4309 25.2787H53.5702Z" fill="#0D0C22"></path>
<path d="M39.9658 30.2425H48.6065V28.0363H42.4478V18.2007H39.9658V30.2425Z" fill="#0D0C22"></path>
<path d="M33.6232 17.0975L22.5925 15.9025L33.1636 12.5014C32.9797 11.766 32.7959 11.1226 32.5201 10.3872L21.5814 13.9721L30.1301 6.2507C29.6705 5.69916 29.2109 5.23955 28.7513 4.68802L19.8349 12.7772L24.7067 1.83844C24.1552 1.56267 23.6037 1.28691 22.9603 1.10307L17.9964 12.4094V0C17.7207 0 17.4449 0 17.0772 0C16.8014 0 16.5257 0 16.2499 0V9.65181L12.2973 0.735378C11.0103 1.10307 9.72347 1.65459 8.52846 2.38997L11.3781 8.82454L6.13849 4.13649C5.12735 4.96379 4.30005 5.97493 3.56468 7.07802L9.17189 12.1337L2.09392 9.83565C1.54239 10.9387 1.1747 12.1337 0.898938 13.4206L8.43654 15.9025L0.53125 16.546C0.53125 17.7409 0.623172 18.936 0.898938 20.039L9.17189 19.2117L2.00201 23.3482C2.46161 24.3594 3.01315 25.3705 3.74852 26.2897L11.2862 21.9693L6.23041 28.9554C6.96579 29.6908 7.79311 30.3343 8.71229 30.8858L14.0438 23.532L12.1134 32.4485C13.0326 32.7242 14.0438 33 15.1469 33.0919L17.0772 23.8078L19.0076 33.0919C20.0187 33 20.938 32.8162 21.8572 32.4485L19.8349 22.7967L25.626 30.7939C26.3613 30.3343 27.0967 29.7827 27.8321 29.2312L21.7652 20.9582L30.6817 26.1058C31.1413 25.3705 31.6009 24.6351 31.9686 23.8997L22.7763 18.3844L33.3474 19.4875C33.5313 18.7521 33.6232 17.9248 33.6232 17.0975Z" fill="#0D0C22"></path>
</g>
<defs>
<clipPath id="svg899107167_4246_clip0_4904_78238">
<rect width="96.9375" height="33" fill="white" transform="translate(0.53125)"></rect>
</clipPath>
</defs>
</svg>