<svg width="76" height="31" viewBox="0 0 76 31" fill="none" xmlns="http://www.w3.org/2000/svg" id="svg1942084483_2542">
<path fill-rule="evenodd" clip-rule="evenodd" d="M75.2499 16.0175C75.2499 10.7198 72.6838 6.53955 67.7792 6.53955C62.854 6.53955 59.874 10.7198 59.874 15.9761C59.874 22.2051 63.392 25.3506 68.4414 25.3506C70.9041 25.3506 72.7665 24.7919 74.1738 24.0055V19.8667C72.7665 20.5703 71.1524 21.0048 69.1037 21.0048C67.0963 21.0048 65.3166 20.3012 65.089 17.8593H75.2085C75.2085 17.5903 75.2499 16.5142 75.2499 16.0175ZM65.0269 14.0516C65.0269 11.7131 66.4548 10.7405 67.7585 10.7405C69.0209 10.7405 70.366 11.7131 70.366 14.0516H65.0269Z" fill="#0D0C22"></path>
<path fill-rule="evenodd" clip-rule="evenodd" d="M51.8866 6.53955C49.8586 6.53955 48.5548 7.49149 47.8305 8.1537L47.5615 6.87066H43.0088V31.0002L48.1824 29.9034L48.203 24.0469C48.948 24.5849 50.0448 25.3506 51.8659 25.3506C55.5702 25.3506 58.9434 22.3707 58.9434 15.8106C58.9227 9.80924 55.5081 6.53955 51.8866 6.53955ZM50.645 20.7979C49.424 20.7979 48.6997 20.3633 48.203 19.8253L48.1824 12.1477C48.7204 11.5476 49.4654 11.1337 50.645 11.1337C52.5281 11.1337 53.8319 13.2445 53.8319 15.9554C53.8319 18.7285 52.5488 20.7979 50.645 20.7979Z" fill="#0D0C22"></path>
<path fill-rule="evenodd" clip-rule="evenodd" d="M35.8896 5.31842L41.0839 4.20093V0L35.8896 1.0968V5.31842Z" fill="#0D0C22"></path>
<path d="M41.0839 6.89111H35.8896V24.9986H41.0839V6.89111Z" fill="#0D0C22"></path>
<path fill-rule="evenodd" clip-rule="evenodd" d="M30.3235 8.42253L29.9924 6.89115H25.5225V24.9986H30.696V12.7269C31.917 11.1335 33.9864 11.4232 34.6279 11.6508V6.89115C33.9657 6.64282 31.5445 6.18755 30.3235 8.42253Z" fill="#0D0C22"></path>
<path fill-rule="evenodd" clip-rule="evenodd" d="M19.9754 2.40039L14.926 3.47649L14.9053 20.0526C14.9053 23.1153 17.2023 25.371 20.2651 25.371C21.962 25.371 23.2037 25.0606 23.8866 24.6881V20.4872C23.2244 20.7562 19.9547 21.7081 19.9547 18.6454V11.2989H23.8866V6.89105H19.9547L19.9754 2.40039Z" fill="#0D0C22"></path>
<path fill-rule="evenodd" clip-rule="evenodd" d="M5.98662 12.1477C5.98662 11.3406 6.64884 11.0302 7.74564 11.0302C9.3184 11.0302 11.305 11.5062 12.8778 12.3546V7.49149C11.1602 6.80858 9.46326 6.53955 7.74564 6.53955C3.5447 6.53955 0.750977 8.73314 0.750977 12.396C0.750977 18.1076 8.61479 17.1971 8.61479 19.6597C8.61479 20.6116 7.78702 20.9221 6.62815 20.9221C4.91052 20.9221 2.71693 20.2185 0.978613 19.2665V24.1918C2.90318 25.0195 4.84844 25.3713 6.62815 25.3713C10.9326 25.3713 13.8918 23.2398 13.8918 19.5355C13.8711 13.3687 5.98662 14.4655 5.98662 12.1477Z" fill="#0D0C22"></path>
</svg>