<svg width="94" height="31" viewBox="0 0 94 31" fill="none" xmlns="http://www.w3.org/2000/svg" id="svg1432920696_1245">
<path fill-rule="evenodd" clip-rule="evenodd" d="M91.6312 10.6892L87.8903 6.94856H80.9409V2.13745H75.0604V24.052H80.9409V12.8269H85.7507V24.052H91.6312V10.6892ZM72.9238 6.94856H63.8372L60.0955 10.6892V20.3097L63.8372 24.052H72.9238V18.1731H65.9744V12.8269H72.9238V6.94856ZM57.9575 6.94856H53.1478V2.13745H47.2673V20.3097L51.009 24.052H57.9575V18.1731H53.1478V12.8269H57.9575V6.94856ZM45.1293 2.13745H39.2504V4.81084H45.1293V2.13745ZM45.1293 6.94856H39.2504V24.0517H45.1293V6.94856ZM37.1124 6.94856H31.233V18.1731H29.0955V6.94856H23.2158V18.1731H21.0786V6.94856H15.1981V24.052H33.3715L37.1124 20.3097V6.94856ZM13.0601 6.94856H8.25012V2.13745H2.37069V20.3097L6.11212 24.052H13.0601V18.1731H8.25012V12.8269H13.0601V6.94856ZM93.7675 9.62003V25.6546L85.7507 31H80.4061V28.3266L76.6647 31H71.8549V28.3266L69.1832 31H60.6309L57.9575 28.3266L57.4224 31H49.9407L46.881 28.3266L46.7097 31H38.2292L37.9293 28.3266L35.6337 31H22.6807L20.0079 29.9309V31H13.0601L5.04243 26.1883L0.232422 21.3802V0H10.3884L15.1981 4.81084H37.1124V0H55.285V4.81084H60.0955V7.48258L62.7689 4.81084H68.1127L72.9238 0H83.0789V4.81084H88.9586L93.7675 9.62003Z" fill="#0D0C22"></path>
</svg>